<?xml version="1.0" encoding="UTF-8" standalone="no"?>
<!-- Created with Inkscape (http://www.inkscape.org/) -->

<svg
   width="800"
   height="800"
   viewBox="0 0 211.66667 211.66667"
   version="1.1"
   id="svg1"
   inkscape:version="1.3 (0e150ed6c4, 2023-07-21)"
   sodipodi:docname="farming assets.svg"
   xml:space="preserve"
   inkscape:export-filename="FarmingAssets\cropsgray.png"
   inkscape:export-xdpi="96"
   inkscape:export-ydpi="96"
   xmlns:inkscape="http://www.inkscape.org/namespaces/inkscape"
   xmlns:sodipodi="http://sodipodi.sourceforge.net/DTD/sodipodi-0.dtd"
   xmlns="http://www.w3.org/2000/svg"
   xmlns:svg="http://www.w3.org/2000/svg"><sodipodi:namedview
     id="namedview1"
     pagecolor="#ffffff"
     bordercolor="#eeeeee"
     borderopacity="1"
     inkscape:showpageshadow="0"
     inkscape:pageopacity="0"
     inkscape:pagecheckerboard="false"
     inkscape:deskcolor="#505050"
     inkscape:document-units="px"
     inkscape:zoom="2"
     inkscape:cx="210.5"
     inkscape:cy="234"
     inkscape:window-width="1728"
     inkscape:window-height="992"
     inkscape:window-x="-8"
     inkscape:window-y="-8"
     inkscape:window-maximized="1"
     inkscape:current-layer="g3715"
     showgrid="true"
     showguides="false"><inkscape:grid
       id="grid67"
       units="px"
       originx="0"
       originy="0"
       spacingx="26.458334"
       spacingy="26.458334"
       empcolor="#0099e5"
       empopacity="0.30196078"
       color="#0099e5"
       opacity="0.14901961"
       empspacing="5"
       dotted="false"
       gridanglex="30"
       gridanglez="30"
       visible="true"
       enabled="true" /></sodipodi:namedview><defs
     id="defs1" /><g
     inkscape:groupmode="layer"
     id="layer10"
     inkscape:label="Tomato Button"><rect
       style="display:inline;fill:#04b78f;fill-opacity:1;stroke:none;stroke-width:0.264582;stroke-dasharray:none;stroke-dashoffset:0;stroke-opacity:1"
       id="rect147-5-9-4"
       width="52.916668"
       height="26.458332"
       x="105.83334"
       y="26.458334" /><rect
       style="display:inline;fill:#049a8f;fill-opacity:1;stroke:none;stroke-width:0.264582;stroke-dasharray:none;stroke-dashoffset:0;stroke-opacity:1"
       id="rect3700-8-5"
       width="50.270836"
       height="23.8125"
       x="107.15626"
       y="27.78125" /><g
       id="g3731"
       transform="translate(13.256532,0.60910845)"><rect
         style="fill:#006837;fill-opacity:1;stroke:none;stroke-width:0.264583;stroke-dasharray:none;stroke-dashoffset:0;stroke-opacity:1"
         id="rect234-6"
         width="0.87525707"
         height="3.5338163"
         x="118.59751"
         y="28.873632" /><path
         style="display:inline;fill:#ff2a2a;fill-opacity:1;stroke:none;stroke-width:0.264583;stroke-dasharray:none;stroke-dashoffset:0;stroke-opacity:1"
         id="path234-2"
         sodipodi:type="arc"
         sodipodi:cx="119.03515"
         sodipodi:cy="40.536755"
         sodipodi:rx="8.7463961"
         sodipodi:ry="8.7463961"
         sodipodi:start="0.10728044"
         sodipodi:end="6.2816018"
         sodipodi:open="true"
         sodipodi:arc-type="arc"
         d="m 127.73126,41.473273 a 8.7463961,8.7463961 0 0 1 -9.39564,7.781859 8.7463961,8.7463961 0 0 1 -8.03466,-9.180396 8.7463961,8.7463961 0 0 1 8.95836,-8.281504 8.7463961,8.7463961 0 0 1 8.52221,8.729673" /><path
         id="path232-3"
         style="fill:#019245;fill-opacity:1;stroke:none;stroke-width:0.264583;stroke-dasharray:none;stroke-dashoffset:0;stroke-opacity:1"
         d="m 119.15447,31.774675 a 8.7463961,8.7463961 0 0 0 -2.3859,0.295072 l 1.04799,1.815394 1.21853,2.110982 1.21853,-2.110982 1.04025,-1.801958 a 8.7463961,8.7463961 0 0 0 -1.98593,-0.308508 z" /><path
         id="path235-51"
         style="display:inline;fill:#019245;fill-opacity:1;stroke:none;stroke-width:0.264583;stroke-dasharray:none;stroke-dashoffset:0;stroke-opacity:1"
         d="m 119.55805,31.797028 0.66353,1.148767 1.10898,1.920813 1.10897,-1.920813 0.22169,-0.383956 a 8.7463961,8.7463961 0 0 0 -3.10317,-0.764811 z" /><path
         id="path236-1"
         style="display:inline;fill:#019245;fill-opacity:1;stroke:none;stroke-width:0.264583;stroke-dasharray:none;stroke-dashoffset:0;stroke-opacity:1"
         d="m 118.38984,31.821832 -0.66353,1.148767 -1.10898,1.920813 -1.10897,-1.920813 -0.22169,-0.383956 a 8.7463961,8.7463961 0 0 1 3.10317,-0.764811 z" /></g></g><g
     inkscape:groupmode="layer"
     id="layer9"
     inkscape:label="Corn Button"
     transform="translate(27.516667,-3.9687502)"
     style="display:inline"><rect
       style="display:inline;fill:#5c8b9c;fill-opacity:1;stroke:none;stroke-width:0.264582;stroke-dasharray:none;stroke-dashoffset:0;stroke-opacity:1"
       id="rect147-4-1"
       width="52.916668"
       height="26.458332"
       x="25.4"
       y="30.427084" /><rect
       style="display:inline;fill:#046d8f;fill-opacity:1;stroke:none;stroke-width:0.264584;stroke-dasharray:none;stroke-dashoffset:0;stroke-opacity:1"
       id="rect3700-8"
       width="50.270832"
       height="23.8125"
       x="26.722918"
       y="31.75" /><g
       inkscape:label="Layer 1"
       id="layer1-4-8-0"
       transform="translate(13.519815,-78.446313)"
       style="display:inline"><g
         id="g26-6-7"
         transform="matrix(0.13586749,0,0,0.13586749,32.515179,118.52591)"
         inkscape:export-filename="cropconnectlogo.png"
         inkscape:export-xdpi="96"
         inkscape:export-ydpi="96"
         style="stroke-width:7.36011"><g
           id="g2-2-3"
           inkscape:export-filename="crop.png"
           inkscape:export-xdpi="96"
           inkscape:export-ydpi="96"
           style="stroke-width:2.12869"
           transform="matrix(3.4575747,0,0,3.4575747,-171.90743,-61.333003)"><g
             id="g22-5-0"
             transform="rotate(45,46.102934,42.359722)"
             style="fill:#ddb945;fill-opacity:1;stroke-width:2.12869" /><path
             style="fill:#ffb028;fill-opacity:1;stroke:none;stroke-width:0.563217;stroke-dasharray:none;stroke-dashoffset:0;stroke-opacity:1"
             id="path222-9"
             sodipodi:type="arc"
             sodipodi:cx="61.964462"
             sodipodi:cy="23.711811"
             sodipodi:rx="10.463391"
             sodipodi:ry="20.372431"
             sodipodi:start="0.10728044"
             sodipodi:end="6.2816018"
             sodipodi:open="true"
             sodipodi:arc-type="arc"
             d="M 72.367699,25.893185 A 10.463391,20.372431 0 0 1 61.127611,44.01898 10.463391,20.372431 0 0 1 51.515679,22.63566 10.463391,20.372431 0 0 1 62.232636,3.3460725 10.463391,20.372431 0 0 1 72.42784,23.679551" /><path
             id="path223-8"
             style="fill:#fed241;fill-opacity:1;stroke:none;stroke-width:0.563217;stroke-dasharray:none;stroke-dashoffset:0;stroke-opacity:1"
             d="m 62.232976,3.3458756 a 10.463391,20.372431 0 0 0 -0.268514,0.020572 V 44.045262 A 10.463391,20.372431 0 0 0 72.367221,25.893487 l 0.06063,-2.214159 A 10.463391,20.372431 0 0 0 62.232976,3.3458756 Z" /><path
             id="path220-7"
             style="fill:#1ec951;fill-opacity:1;stroke-width:0.434426"
             d="M 66.325844,31.678573 A 16.935937,17.891972 45 0 1 80.390672,27.094239 L 60.227374,47.257537 a 16.935937,17.891972 45 0 1 4.457933,-13.918101 16.935937,17.891972 45 0 1 1.640524,-1.660876 z" /><path
             id="path221-8"
             style="fill:#1ec951;fill-opacity:1;stroke-width:0.434419"
             d="M 75.80641,41.158884 A 16.935706,17.891725 45 0 0 80.390681,27.094247 L 60.227658,47.25727 a 16.935706,17.891725 45 0 0 13.917912,-4.457872 16.935706,17.891725 45 0 0 1.660853,-1.640501 z" /><g
             id="g16-1-2"
             transform="matrix(1.0825613,1.0825613,-1.0825613,1.0825613,32.488876,-38.241263)"
             style="fill:#00a14b;fill-opacity:1;stroke-width:1.39042"><path
               id="path12-0-2"
               style="fill:#00a14b;fill-opacity:1;stroke-width:0.283758"
               d="m 44.032366,20.555049 a 11.686668,11.062206 0 0 0 -8.613444,4.378733 h 18.625549 a 11.686668,11.062206 0 0 0 -8.487295,-4.369345 11.686668,11.062206 0 0 0 -1.52481,-0.0094 z" /><path
               id="path13-8-1"
               style="fill:#00a14b;fill-opacity:1;stroke-width:0.283754"
               d="M 44.032248,29.312464 A 11.686507,11.062055 0 0 1 35.418922,24.93379 h 18.625294 a 11.686507,11.062055 0 0 1 -8.487179,4.369286 11.686507,11.062055 0 0 1 -1.524789,0.0094 z" /></g></g></g></g></g><g
     inkscape:groupmode="layer"
     id="g3715"
     inkscape:label="Wheat Flip"><rect
       style="display:inline;fill:#80a09c;fill-opacity:1;stroke:none;stroke-width:0.264582;stroke-dasharray:none;stroke-dashoffset:0;stroke-opacity:1"
       id="rect3701"
       width="52.916668"
       height="26.458332"
       x="0"
       y="26.458334" /><rect
       style="display:inline;fill:#42879f;fill-opacity:1;stroke:none;stroke-width:0.264584;stroke-dasharray:none;stroke-dashoffset:0;stroke-opacity:1"
       id="rect3702"
       width="50.270836"
       height="23.8125"
       x="1.322916"
       y="27.78125" /><g
       inkscape:label="Layer 1"
       id="g3714"
       transform="translate(-11.849075,-82.987242)"
       style="display:inline"><g
         id="g3713"
         transform="matrix(0.13804015,0,0,0.13804015,31.437628,115.59056)"
         inkscape:export-filename="cropconnectlogo.png"
         inkscape:export-xdpi="96"
         inkscape:export-ydpi="96"
         style="stroke-width:7.24427"><g
           id="g3712"
           inkscape:export-filename="crop.png"
           inkscape:export-xdpi="96"
           inkscape:export-ydpi="96"
           style="stroke-width:2.09519"
           transform="matrix(3.4575747,0,0,3.4575747,-171.90743,-61.333003)"><g
             id="g3703"
             transform="rotate(45,32.050192,48.180548)"
             style="fill:#ddb945;fill-opacity:1;stroke-width:2.09519"><path
               id="path3702"
               style="fill:#ddb945;fill-opacity:1;stroke-width:0.427589"
               d="m 44.032366,20.555049 a 11.686668,11.062206 0 0 0 -8.613444,4.378733 h 18.625549 a 11.686668,11.062206 0 0 0 -8.487295,-4.369345 11.686668,11.062206 0 0 0 -1.52481,-0.0094 z" /><path
               id="path3703"
               style="fill:#ddb945;fill-opacity:1;stroke-width:0.427583"
               d="M 44.032248,29.312464 A 11.686507,11.062055 0 0 1 35.418922,24.93379 h 18.625294 a 11.686507,11.062055 0 0 1 -8.487179,4.369286 11.686507,11.062055 0 0 1 -1.524789,0.0094 z" /></g><g
             id="g3705"
             transform="rotate(45,46.102934,42.359722)"
             style="fill:#ddb945;fill-opacity:1;stroke-width:2.09519"><path
               id="path3704"
               style="fill:#ddb945;fill-opacity:1;stroke-width:0.427589"
               d="m 44.032366,20.555049 a 11.686668,11.062206 0 0 0 -8.613444,4.378733 h 18.625549 a 11.686668,11.062206 0 0 0 -8.487295,-4.369345 11.686668,11.062206 0 0 0 -1.52481,-0.0094 z" /><path
               id="path3705"
               style="fill:#ddb945;fill-opacity:1;stroke-width:0.427583"
               d="M 44.032248,29.312464 A 11.686507,11.062055 0 0 1 35.418922,24.93379 h 18.625294 a 11.686507,11.062055 0 0 1 -8.487179,4.369286 11.686507,11.062055 0 0 1 -1.524789,0.0094 z" /></g><g
             id="g3707"
             transform="matrix(-0.70710678,0.70710678,0.70710678,0.70710678,84.769047,-20.192822)"
             style="fill:#daaa00;fill-opacity:1;stroke-width:2.09519"><path
               id="path3706"
               style="fill:#daaa00;fill-opacity:1;stroke-width:0.427589"
               d="m 44.032366,20.555049 a 11.686668,11.062206 0 0 0 -8.613444,4.378733 h 18.625549 a 11.686668,11.062206 0 0 0 -8.487295,-4.369345 11.686668,11.062206 0 0 0 -1.52481,-0.0094 z" /><path
               id="path3707"
               style="fill:#daaa00;fill-opacity:1;stroke-width:0.427583"
               d="M 44.032248,29.312464 A 11.686507,11.062055 0 0 1 35.418922,24.93379 h 18.625294 a 11.686507,11.062055 0 0 1 -8.487179,4.369286 11.686507,11.062055 0 0 1 -1.524789,0.0094 z" /></g><g
             id="g3709"
             transform="matrix(-0.70710678,0.70710678,0.70710678,0.70710678,84.769047,-8.5511522)"
             style="fill:#daaa00;fill-opacity:1;stroke-width:2.09519"><path
               id="path3708"
               style="fill:#daaa00;fill-opacity:1;stroke-width:0.427589"
               d="m 44.032366,20.555049 a 11.686668,11.062206 0 0 0 -8.613444,4.378733 h 18.625549 a 11.686668,11.062206 0 0 0 -8.487295,-4.369345 11.686668,11.062206 0 0 0 -1.52481,-0.0094 z" /><path
               id="path3709"
               style="fill:#daaa00;fill-opacity:1;stroke-width:0.427583"
               d="M 44.032248,29.312464 A 11.686507,11.062055 0 0 1 35.418922,24.93379 h 18.625294 a 11.686507,11.062055 0 0 1 -8.487179,4.369286 11.686507,11.062055 0 0 1 -1.524789,0.0094 z" /></g><rect
             style="fill:#8e6f3e;fill-opacity:1;stroke-width:0.508802"
             id="rect3709"
             width="1.5052887"
             height="28.062019"
             x="63.362"
             y="27.443132" /><g
             id="g3711"
             transform="matrix(0,1,1,0,39.180892,-25.761214)"
             style="fill:#ebd99f;fill-opacity:1;stroke-width:2.09519"><path
               id="path3710"
               style="fill:#ebd99f;fill-opacity:1;stroke-width:0.427589"
               d="m 44.032366,20.555049 a 11.686668,11.062206 0 0 0 -8.613444,4.378733 h 18.625549 a 11.686668,11.062206 0 0 0 -8.487295,-4.369345 11.686668,11.062206 0 0 0 -1.52481,-0.0094 z" /><path
               id="path3711"
               style="fill:#ebd99f;fill-opacity:1;stroke-width:0.427583"
               d="M 44.032248,29.312464 A 11.686507,11.062055 0 0 1 35.418922,24.93379 h 18.625294 a 11.686507,11.062055 0 0 1 -8.487179,4.369286 11.686507,11.062055 0 0 1 -1.524789,0.0094 z" /></g></g></g></g></g><g
     inkscape:groupmode="layer"
     id="layer8"
     inkscape:label="Wheat Button"><rect
       style="display:inline;fill:#80a09c;fill-opacity:1;stroke:none;stroke-width:0.264583;stroke-dasharray:none;stroke-dashoffset:0;stroke-opacity:1"
       id="rect147-4"
       width="52.916672"
       height="26.458332"
       x="0"
       y="52.916668" /><rect
       style="display:inline;fill:#42879f;fill-opacity:1;stroke:none;stroke-width:0.264583;stroke-dasharray:none;stroke-dashoffset:0;stroke-opacity:1"
       id="rect3700"
       width="50.270836"
       height="23.8125"
       x="1.3229179"
       y="54.239586" /></g><g
     inkscape:groupmode="layer"
     id="g3725"
     inkscape:label="Corn Flip"
     transform="translate(27.516667,-3.9687502)"
     style="display:inline"><rect
       style="display:inline;fill:#5c8b9c;fill-opacity:1;stroke:none;stroke-width:0.264582;stroke-dasharray:none;stroke-dashoffset:0;stroke-opacity:1"
       id="rect3715"
       width="52.916668"
       height="26.458332"
       x="25.4"
       y="56.885418" /><rect
       style="display:inline;fill:#046d8f;fill-opacity:1;stroke:none;stroke-width:0.264584;stroke-dasharray:none;stroke-dashoffset:0;stroke-opacity:1"
       id="rect3716"
       width="50.270832"
       height="23.8125"
       x="26.722918"
       y="58.208336" /></g><g
     inkscape:groupmode="layer"
     id="g3730"
     inkscape:label="Tomato Flip"><rect
       style="display:inline;fill:#04b78f;fill-opacity:1;stroke:none;stroke-width:0.264582;stroke-dasharray:none;stroke-dashoffset:0;stroke-opacity:1"
       id="rect3725"
       width="52.916668"
       height="26.458332"
       x="105.83334"
       y="52.916668" /><rect
       style="display:inline;fill:#049a8f;fill-opacity:1;stroke:none;stroke-width:0.264584;stroke-dasharray:none;stroke-dashoffset:0;stroke-opacity:1"
       id="rect3726"
       width="50.270832"
       height="23.8125"
       x="107.15627"
       y="54.239586" /></g></svg>
